<svg width="181" height="47" viewBox="0 0 181 47" fill="none" xmlns="http://www.w3.org/2000/svg">
<path d="M18.0176 0V36.2366H10.6038V6.31556H0V0H18.0176ZM19.0985 0H28.6215V6.31556H22.2361L19.0985 0Z" fill="#1F2637"/>
<path d="M44.7345 11.3859L44.1154 12.4201L41.492 17.1317L41.4395 17.0789C40.3062 16.4247 39.0889 16.0976 37.7825 16.0976C36.8905 16.0976 36.051 16.2453 35.2587 16.5355C34.4665 16.8309 33.7634 17.2425 33.1495 17.7754C32.5304 18.3083 32.0057 18.9414 31.5807 19.6642C31.1505 20.3871 30.8671 21.1679 30.7307 21.9963V36.2314H23.7314V10.3518H30.7307V13.718C32.5514 11.2013 35.2115 9.94028 38.7112 9.94028C40.7679 9.94028 42.7617 10.4257 44.6821 11.3912H44.7345V11.3859Z" fill="#1F2637"/>
<path d="M70.5752 10.3518V36.2314H63.833V23.2573C63.833 22.2548 63.6441 21.3209 63.2663 20.4557C62.8886 19.5904 62.3639 18.8306 61.6975 18.1711C61.0259 17.5116 60.2546 17.0051 59.3837 16.641C58.5074 16.2769 57.5892 16.0976 56.6291 16.0976C55.6689 16.0976 54.7087 16.2875 53.8483 16.6674C52.9878 17.0473 52.227 17.559 51.5554 18.2027C50.8838 18.8412 50.3644 19.6062 49.9866 20.4873C49.6088 21.3684 49.4199 22.3129 49.4199 23.3206C49.4199 24.3284 49.6088 25.2095 49.9866 26.0748C50.3644 26.9401 50.889 27.6998 51.5554 28.3593C52.2217 29.0189 52.9878 29.5359 53.8483 29.9158C54.7035 30.2957 55.6322 30.4856 56.6291 30.4856C57.6942 30.4856 58.6019 30.2957 59.3574 29.9158H59.4099V30.0213L61.9861 34.6274L61.9336 34.6802C60.2494 35.9939 58.1769 36.6482 55.7056 36.6482C53.885 36.6482 52.1693 36.3 50.5585 35.6141C48.9425 34.9229 47.5363 33.9732 46.34 32.7649C45.1385 31.5567 44.1888 30.1427 43.4858 28.5229C42.7827 26.9031 42.4312 25.1778 42.4312 23.347C42.4312 21.5162 42.7827 19.7434 43.4858 18.1183C44.1888 16.4985 45.1385 15.0845 46.34 13.8763C47.5416 12.668 48.9477 11.7131 50.5585 11.0008C52.1693 10.2938 53.885 9.94028 55.7056 9.94028C57.5263 9.94028 59.0531 10.2727 60.3911 10.9427C61.729 11.6128 62.8781 12.5784 63.8382 13.8446V10.3571H70.5804L70.5752 10.3518Z" fill="#1F2637"/>
<path d="M80.5074 10.4046L87.1499 29.1455L82.6219 33.8571L73.1514 10.3571H80.5127V10.4099L80.5074 10.4046ZM94.6109 10.3518H101.92L91.3684 36.2314H85.3975L87.5067 30.2799L94.6109 10.3518Z" fill="#1F2637"/>
<path d="M141.817 10.3518V33.282C141.712 35.2131 141.282 37.0175 140.531 38.6901C139.776 40.3626 138.774 41.8135 137.52 43.0376C136.266 44.2617 134.802 45.2272 133.118 45.9342C131.433 46.6412 129.649 46.9947 127.766 46.9947C125.226 46.9947 122.865 46.3669 120.688 45.1059C118.51 43.8449 116.784 42.1301 115.514 39.9563L115.462 39.8508L115.514 39.798L121.176 37.313C121.517 37.9356 121.957 38.479 122.487 38.9433C123.017 39.4076 123.584 39.7875 124.187 40.083C124.786 40.3731 125.405 40.6 126.04 40.7583C126.674 40.9113 127.283 40.9905 127.865 40.9905C128.757 40.9905 129.634 40.8005 130.489 40.4206C131.344 40.0407 132.11 39.4867 132.782 38.7586C133.453 38.0305 133.983 37.1705 134.377 36.1681C134.77 35.1656 134.97 34.0418 134.97 32.7966V23.3048C134.97 22.3023 134.77 21.3579 134.377 20.4768C133.983 19.5956 133.448 18.8359 132.782 18.1922C132.11 17.5538 131.339 17.042 130.463 16.6621C129.586 16.2822 128.652 16.0923 127.656 16.0923C126.659 16.0923 125.725 16.2822 124.848 16.6674C123.972 17.0525 123.211 17.5643 122.556 18.208C121.905 18.8517 121.391 19.6167 121.013 20.5031C120.635 21.3895 120.446 22.334 120.446 23.3417C120.446 24.3495 120.635 25.2886 121.013 26.1592C121.391 27.0297 121.905 27.7948 122.556 28.4543C123.206 29.1138 123.972 29.6362 124.848 30.0161C125.725 30.4012 126.659 30.5912 127.656 30.5912C128.721 30.5912 129.644 30.4012 130.436 30.0213H130.489L130.541 30.0741L133.118 34.6485L133.065 34.7013C131.381 36.0731 129.308 36.7537 126.837 36.7537C124.985 36.7537 123.232 36.4002 121.585 35.6932C119.937 34.9862 118.516 34.0259 117.314 32.8177C116.113 31.6095 115.158 30.1849 114.455 28.5493C113.751 26.9084 113.4 25.1778 113.4 23.347C113.4 21.5162 113.751 19.7434 114.455 18.1183C115.158 16.4985 116.107 15.0845 117.314 13.8763C118.516 12.668 119.937 11.7131 121.585 11.0008C123.232 10.2938 124.985 9.94028 126.837 9.94028C130.337 9.94028 133.049 11.2593 134.97 13.8921V10.3518H141.817Z" fill="#1F2637"/>
<path d="M160.144 29.71L162.615 34.2159V34.2686C160.831 35.8568 158.617 36.6482 155.973 36.6482C151.786 36.6482 148.816 35.5085 147.069 33.2292C145.458 31.1926 144.65 27.9478 144.65 23.5V10.3518H151.702V23.5C151.702 24.4339 151.728 25.3308 151.78 26.1908C151.833 27.0561 152.022 27.8159 152.347 28.4701C152.672 29.1244 153.176 29.652 153.863 30.0477C154.551 30.4434 155.527 30.6439 156.796 30.6439C157.379 30.6439 157.945 30.5595 158.496 30.3854C159.042 30.2113 159.561 29.9897 160.039 29.71H160.144ZM170.952 10.3518V36.3897H163.901V10.3518H170.952Z" fill="#1F2637"/>
<path d="M110.829 10.3518H103.982V36.2314H110.829V10.3518Z" fill="#1F2637"/>
<path d="M180.89 10.3518H174.042V36.2314H180.89V10.3518Z" fill="#1F2637"/>
<path d="M180.885 2.17905H173.99V7.89312H180.885V2.17905Z" fill="#F56D38"/>
</svg>
